<?xml version="1.0" encoding="UTF-8"?>
<svg width="499px" height="440px" viewBox="0 0 499 440" version="1.1" xmlns="http://www.w3.org/2000/svg" xmlns:xlink="http://www.w3.org/1999/xlink">
    <!-- Generator: Sketch 42 (36781) - http://www.bohemiancoding.com/sketch -->
    <title>nimiq</title>
    <desc>Created with Sketch.</desc>
    <defs></defs>
    <g id="Page-1" stroke="none" stroke-width="1" fill="none" fill-rule="evenodd">
        <g id="nimiq" fill="#FFC107">
            <path d="M389.32515,20.7343262 C382.650706,9.28307406 366.484856,0 353.242455,0 L145.237545,0 C131.984067,0 115.831937,9.27853911 109.15485,20.7343262 L5.32515015,198.873517 C-1.34929398,210.324769 -1.3519372,228.886382 5.32515015,240.342169 L109.15485,418.48136 C115.829294,429.932612 131.995144,439.215686 145.237545,439.215686 L353.242455,439.215686 C366.495933,439.215686 382.648063,429.937147 389.32515,418.48136 L493.15485,240.342169 C499.829294,228.890917 499.831937,210.329304 493.15485,198.873517 L389.32515,20.7343262 Z M272.612549,347.45098 L272.612549,388.54902 L233.867451,388.54902 L233.867451,349.019608 C210.338039,346.196078 182.416471,336 163.592941,318.901961 L189.161569,279.843137 C209.553725,294.901961 227.122353,302.745098 246.259608,302.745098 C268.69098,302.745098 278.573333,293.647059 278.573333,275.45098 C278.573333,234.823529 173.161569,235.607843 173.161569,164.392157 C173.161569,125.647059 196.377255,98.8235294 233.867451,91.2941176 L233.867451,50.5098039 L272.612549,50.5098039 L272.612549,90.5098039 C298.181176,94.1176471 316.534118,106.666667 332.063529,122.980392 L302.573333,156.235294 C288.141961,143.215686 275.906667,136.470588 259.122353,136.470588 C239.985098,136.470588 229.632157,144 229.632157,161.72549 C229.632157,199.215686 335.043922,196.078431 335.043922,271.686275 C334.887059,309.490196 313.710588,338.823529 272.612549,347.45098 Z" id="XMLID_7_"></path>
        </g>
    </g>
</svg>