<svg version="1.1" id="Layer_1" xmlns="http://www.w3.org/2000/svg" x="0" y="0" viewBox="-10 -10 105 105" xml:space="preserve"><style>.st1{fill:#21bca5}</style><radialGradient id="SVGID_1_" cx="20.2" cy="61.7" r="1" gradientTransform="matrix(-84.8741 0 0 83.976 1802.4 -5096.5)" gradientUnits="userSpaceOnUse"><stop offset="0" stop-color="#41a38e"/><stop offset="1" stop-color="#21bca5"/></radialGradient><path d="M31.4 7.9a3 3 0 00-1.9-5.7 43 43 0 1055.3 51 3 3 0 10-5.8-1.5A37 37 0 1131.4 8zm10 13.7c1.2-1 3-.8 3.9.4l9.6 12.8a2.6 2.6 0 01.2 2.7c-.4.9-1.4 1.5-2.3 1.5h-5.3c-.4 0-.8.4-.8.8v21.8a3.5 3.5 0 01-7 0V39.8c0-.5-.4-.8-.9-.8h-5.2a2.6 2.6 0 01-2.2-4l.1-.2L41.1 22l.4-.4z" fill-rule="evenodd" clip-rule="evenodd" fill="url(#SVGID_1_)"/><path class="st1" d="M83.3 9h.8c.9 0 1.6.8 1.6 1.7v.8c0 1.4 1 2.5 2.3 2.5s2.3-1.1 2.3-2.5v-.8c0-1 .7-1.7 1.6-1.7h.8C94 9 95 7.9 95 6.5S94 4 92.7 4h-.8c-.9 0-1.6-.8-1.6-1.7v-.8C90.3.1 89.3-1 88-1S85.7.1 85.7 1.5v.8c0 1-.7 1.7-1.6 1.7h-.8C82 4 81 5.1 81 6.5S82 9 83.3 9zM84.7 26.7h-.8c-.9 0-1.6-.7-1.6-1.6v-.8a2.3 2.3 0 10-4.6 0v.8c0 .9-.7 1.6-1.6 1.6h-.8a2.3 2.3 0 100 4.6h.8c.9 0 1.6.7 1.6 1.6v.8a2.3 2.3 0 104.6 0v-.8c0-.9.7-1.6 1.6-1.6h.8a2.3 2.3 0 000-4.6zM69.6 0c-4 0-7.2-3.4-7.2-7.5 0-1.4-1-2.5-2.4-2.5s-2.4 1.1-2.4 2.5c0 4.1-3.2 7.5-7.2 7.5C49.1 0 48 1.1 48 2.5S49 5 50.4 5c4 0 7.2 3.4 7.2 7.5 0 1.4 1 2.5 2.4 2.5s2.4-1.1 2.4-2.5c0-4.1 3.2-7.5 7.2-7.5C70.9 5 72 3.9 72 2.5S71 0 69.6 0zm-8 3.1l-1 1.1c-.3.4-.8.4-1.1.1h-.1l-1-1.2a.9.9 0 01-.1-1.2L59.4.8c.3-.4.8-.4 1.1-.1h.1l1 1.2c.4.3.4.8.1 1.1v.1z"/></svg>
