<svg width="416" height="552" xmlns="http://www.w3.org/2000/svg">
  <g fill="none" fill-rule="evenodd">
    <path d="M110 551.24s52-196.3 55.77-206.14a492.84 492.84 0 0 1 19.65-43.88C235.47 284 261 199.87 261 199.87l-98.57-74.28L65.82 551.8l44.19-.56zm149.87-297.9s5.36 14.34 19.07 15.17c1 .06 3.88.37 3.95-.63.85-12.3-3.58-42.27-3.58-42.27L256 229.35l3.87 24z" fill="#D1AA8F" fill-rule="nonzero"/>
    <path d="M282.77 268.58l-7.7-6.32c-.32-8.21.3-12.47 4.86-12.67 2.05-.08 3.69 19.51 2.84 19" fill="#F1F1F2" fill-rule="nonzero"/>
    <path d="M265.7 226.6s11.2 8.67 23.99 5.15c.97-.27 3.66-1.42 3.27-2.36-4.75-11.53-11.38-36.3-12.4-37.24-6.54-6.08-35.56-2.52-35.56-2.52l20.7 36.98z" fill="#E4BA9B" fill-rule="nonzero"/>
    <path d="M292.99 228.6l-10.8-4.91c-2.82-9.73-3.45-14.95 1.36-16.09 2.15-.5 9.82 20.26 9.44 21" fill="#F1F1F2" fill-rule="nonzero"/>
    <path d="M277.81 179.3c5.28.43 13.11 1.64 20.77-7.83.58-.72 1.97-3.02 1.19-3.5-9.65-6.05-28.96-21.1-28.96-21.1l-16.73-1.28L243 164.06s25.18 14.46 34.81 15.24" fill="#E4BA9B" fill-rule="nonzero"/>
    <path d="M300 168.48c-1.39.9-8.85-3.87-8.85-3.87-8.55-6.3-12.6-10.37-10.68-10 .35.08 19.76 13.72 19.53 13.87" fill="#F1F1F2" fill-rule="nonzero"/>
    <path d="M275.01 70.5c-10.63-9.63-22.65 6.64-34.42 20.82-2.3 2.77-5.59 13.27-5.59 13.27l19.04 17s34.04-39.26 20.97-51.1" fill="#D1AA8F" fill-rule="nonzero"/>
    <path d="M169.34 249.25c-8.73 0-15.83-6.95-15.83-15.49V16.5C153.5 7.95 160.6 1 169.34 1h83.53c8.73 0 15.83 6.95 15.83 15.49v217.27c0 5.76-3.22 10.8-8 13.46a15.99 15.99 0 0 1-7.83 2.03h-83.53z" fill="#231F20" fill-rule="nonzero"/>
    <path fill="#FFF" fill-rule="nonzero" d="M159 215.6h103v-181H159"/>
    <g fill-rule="nonzero">
      <path d="M230.27 143.26h2.12v-2.16h-2.12v2.16zm-11.34-31.8h15.74V95.72h-15.74v15.73zm-31.77.02h15.72V95.74h-15.72v15.74zm0 31.79h15.72V127.5h-15.72v15.77zm27.17-40.67l2.2-.15v-2.3h-2.24v-2.23h2.2v-2.16h-4.37v4.35h2.2l.04 2.51-2.23-.12v2.26h2.14v2.26h-2.14v2.29l.03-.03h-2.46v2.19h-2.2v-6.73h2.17v-9h-2.2V98h-2.2v4.5l2.25.1v2.19h-2.32v9.07h-4.41v2.3h4.36v2.15h-6.8v-2.2h-2.23v-2.2h-2.25v4.4h-2.3v-4.37h-4.46v4.35h4.49v2.44h4.5v2.18h-8.97v2.27h8.94v-2.31h2.18l-.03-.02.22 2.4h6.78v4.43l2.19.1v4.53h-2.16v2.24h4.38v2.32h-4.38v4.43h4.47v-2.24h2.36v2.23h4.42l.1-2.24h4.4v-2.18h-4.48v-2.37h-2.28v-4.4h4.6v2.23h2.23v2.25l2.43-.17v6.9h2.12v-4.45h4.56v-2.26h2.23v2.23h2.2v-6.69h-2.23v2.18h-4.56v2.12h-4.34l-.13-2.14h2.17v-4.59h-2.08v-2.2h2.15v-4.58h2.25v-2.19h2.36v4.44l-2.3.11v4.4h4.44v-2.12l-.02.03 2.27-.15v-2.17l-2.22-.1v-4.44h2.24v-4.54l-2.27-.1v-2.17h-4.46l-.1 2.24h-2.2v-2.23h-6.74v4.42h-4.58v2.41h-2.2v2.2h-2.4v-4.63l-.01.03h2.38v-4.52h4.43v-9h-2.26l.09-2.2.04-.04zm-36.33 50h66v-66h-66v66z" fill="#FFF"/>
      <path d="M191.58 118.27h2.3v-4.4h2.24v2.2h2.22v2.2h6.79v-2.14h-4.36v-2.3h4.4v-9.06h2.33l-.03-.03v6.73h2.2v-2.2h2.45l-.1 2.19h2.18v-2.15h-2.11v-2.28h2.14v-2.25l-.03.03h2.26v9h-4.44v4.53h-2.38v-2.18h-2.18v-2.25h-2.2v2.22h2.23l-.09 2.14-2.12.18c-.24 2.56-.34 2.38 2.1 2.14v-2.33l2.3.07v4.62h2.4l-.04-.03v2.23h2.22v-2.23l-.03.03h2.24v2.28h-2.23v2.32h-2.14v2.1h4.46v-2.06h2.26v4.54l.03-.03h-4.61v4.4l.02-.02-2.22.1v4.52l.03-.03h-2.36v2.24h-4.47v-4.43h4.38v-2.32h-4.39v-2.25h2.16v-4.53l-2.19-.1v-4.43h-6.78c-.08-.9-.15-1.65-.2-2.4h4.62v-2.08h-4.43l-.17 2.1h-2.18l.03.03v-2.17h-4.5v-2.44l-.03.03.02-.05z" fill="#000"/>
      <path d="M189.41 140.95h11.24v-11.23h-11.24v11.23zm-2.25 2.32h15.72V127.5h-15.72v15.77zm2.28-34.02h11.2V97.98h-11.2v11.27zm-2.28 2.23h15.72V95.74h-15.72v15.74zm34-2.2h11.2V98.02h-11.2v11.27zm-2.23 2.17h15.74V95.73h-15.74v15.73zm6.7 11.42v4.57h-2.15v2.2h2.08v4.6h-2.16l.13 2.13v-.02l-2.43.17v-2.25h-2.23v-2.23l-.02.03 2.16-.1v-6.75l-2.11-.1v-2.17h2.17v2.16h2.36v-2.21h2.2l-.02-.03h.03z" fill="#000"/>
      <path d="M225.64 116.12h2.19l.09-2.24h4.46v2.16l2.27.1v4.54h-2.24l.02.03v-2.32h-2.22v2.32l.03-.03h-2.36v2.19h-2.26l.03.03v-6.8l-.03.02h.02zm-2.1 20.25h4.34v-2.12h4.55v-2.17h2.23v6.7h-2.2v-2.24h-2.23v2.26h-4.56v4.46h-2.13v-6.9l-.02.01h.01z" fill="#000"/>
      <path d="M232.42 120.68v4.44l2.22.1v2.18l-2.27.15v-2.3h-2.09v2.16l2.11.1v2.13h-4.44v-4.4l2.3-.1v-4.44l-.02.03h2.2l-.02-.02.01-.03zm-24.9-15.93v-2.18l-2.24-.1v-4.5h2.2v-2.23h2.19v8.99h-2.18l.03.03zm6.75 31.7h2.28v2.37h4.48V141h-4.4l-.1 2.24h-4.42V141l-.04.03h4.4v-2.26h-2.18v-2.36l-.03.02v.01zm-18.2-13.63v2.3h-8.93v-2.26h8.97l-.03-.04zm-4.47-4.58h-4.5v-4.35h4.46v4.38l.03-.03zm27.26.07v-4.42h6.75v2.23l.03-.03H221v2.2h-2.18l.03.02zm-4.57-18.2h-2.2v-4.36h4.38v2.17h-2.21v2.21l.03-.03zm-.02 20.6v-2.42h4.59l-.03-.02v2.4h-4.6l.04.02v.01zm-.01-20.58h2.23v2.31l-2.2.14.04.03-.05-2.5-.03.01v.01zm15.96 43.11h2.12v-2.16h-2.12v2.16z" fill="#000"/>
      <path d="M212.12 122.9v-2.19h2.19l-.03-.03v2.22l.02-.03h-2.22l.04.03zm2.21-20.3l-.08 2.19.02-.03h-2.14v-2.26l2.23.12-.03-.02z" fill="#000"/>
      <path d="M214.28 122.9v-2.22h4.58v-2.4h2.18v-2.2h4.63v6.8h-2.22v2.21h-2.35v-2.17h-2.17v2.17l2.11.1v6.74l-2.15.1v-4.54h-2.26v2.1h-4.46v-2.1h2.14v-2.32h2.24v-2.28h-2.27zm.02 13.53v2.36h2.2v2.25h-4.42v-4.52l2.22-.1zm-16.03-13.62l.17-2.1h4.43v2.08h-4.62l.02.01v.01zm9.16-4.63v2.33c-2.44.24-2.33.42-2.1-2.14l2.13-.18-.02-.02v.01z" fill="#FFF"/>
      <path d="M212.08 122.87h2.22v2.23h-2.22v-2.23zm-2.37-4.59l-2.28-.07.02.02.08-2.14-.03.03h2.19v2.19l.02-.03z" fill="#FFF"/>
      <path d="M207.53 116.1h-2.23v-2.22h2.2l.01 2.24.03-.03h-.01zm4.61-6.8h2.12v2.15h-2.18l.1-2.18-.03.03zm-20.49 29.46h6.67v-6.69h-6.67v6.69zm-2.2 2.2h11.23v-11.24h-11.24v11.23zm2.22-34.04h6.65v-6.7h-6.64v6.7zm-2.2 2.32h11.2V97.98h-11.2v11.26zm34.06-2.33h6.65v-6.7h-6.65v6.7zm-2.33 2.36h11.2V98.02h-11.2v11.27-.02zm11.3 11.42h-2.23v-2.32h2.22v2.32zm-.06 6.81l-2.11-.1v-2.17h2.09v2.3l.03-.04v.01z" fill="#FFF"/>
      <path d="M191.63 138.76h6.67v-6.69h-6.67m0-25.15h6.65v-6.7h-6.65m31.85 6.7h6.64v-6.7h-6.65" fill="#000"/>
    </g>
    <path d="M178.62 86.6H178v18h2.48V89.04H197v-2.46h-18.38zM244 87.81v16.77h-2.48V89.05H225v-2.46h19v1.23zm-66 63.55v-16.78h2.48v15.55H197v2.45h-19v-1.22zm64.76 1.22H244v-18h-2.48v15.55H225v2.45h17.76z" fill="#9EF553" fill-rule="nonzero"/>
    <path d="M222 231.6a11 11 0 1 1-22 0 11 11 0 0 1 22 0" fill="#333" fill-rule="nonzero"/>
    <path d="M144.73 96.6s11.74 4.07 16.27 12.44c2.1 3.9 7.78 13.43 3.29 41.55-1.54 9.65-10.25 34.29-10.83 37.11-.97 4.71.18 8.02.18 8.02s6.55 11.32 14.86 29.88c5.63 12.58 7.85 42.26 2.19 59.68-.94 2.9-14.26 21.6-20.21 36.94C133.46 366.1 81.3 551.56 81.3 551.56l-81.27-.54s67.5-168.6 82.8-204.6c18.98-44.66 21.5-66.44 22.14-78.47.95-17.84 4.43-56.66 5.64-61.7 1.63-6.79 6.44-12.61 8.99-17.65 19.01-37.64 21.3-61.82 21.3-61.82l3.83-30.19z" fill="#E4BA9B" fill-rule="nonzero"/>
    <path d="M144.76 96.74s.22-.4.43.12c.65 1.65 1.9 6.64 1.8 14.46-.23 19.08-5.99 16.1-5.99 16.1l3.76-30.68z" fill="#F1F1F2" fill-rule="nonzero"/>
  </g>
</svg>