<?xml version="1.0" encoding="UTF-8" standalone="no"?>
<svg
   xmlns:dc="http://purl.org/dc/elements/1.1/"
   xmlns:cc="http://creativecommons.org/ns#"
   xmlns:rdf="http://www.w3.org/1999/02/22-rdf-syntax-ns#"
   xmlns:svg="http://www.w3.org/2000/svg"
   xmlns="http://www.w3.org/2000/svg"
   xmlns:xlink="http://www.w3.org/1999/xlink"
   xmlns:sodipodi="http://sodipodi.sourceforge.net/DTD/sodipodi-0.dtd"
   xmlns:inkscape="http://www.inkscape.org/namespaces/inkscape"
   width="512"
   height="512"
   viewBox="0 0 512 512"
   version="1.1"
   id="svg1155"
   sodipodi:docname="icon-white-on-gradient.svg"
   inkscape:version="0.92.2 (5c3e80d, 2017-08-06)"
   inkscape:export-filename="/home/soeren/nimiq/nimiq.github.io/apps/safe/src/pwa/icons/icon76.png"
   inkscape:export-xdpi="14.25"
   inkscape:export-ydpi="14.25">
  <metadata
     id="metadata1159">
    <rdf:RDF>
      <cc:Work
         rdf:about="">
        <dc:format>image/svg+xml</dc:format>
        <dc:type
           rdf:resource="http://purl.org/dc/dcmitype/StillImage" />
        <dc:title>nimiq</dc:title>
      </cc:Work>
    </rdf:RDF>
  </metadata>
  <sodipodi:namedview
     pagecolor="#ffffff"
     bordercolor="#666666"
     borderopacity="1"
     objecttolerance="10"
     gridtolerance="10"
     guidetolerance="10"
     inkscape:pageopacity="0"
     inkscape:pageshadow="2"
     inkscape:window-width="1920"
     inkscape:window-height="976"
     id="namedview1157"
     showgrid="false"
     fit-margin-top="0"
     fit-margin-left="0"
     fit-margin-right="0"
     fit-margin-bottom="0"
     inkscape:zoom="1.0727273"
     inkscape:cx="-98.268196"
     inkscape:cy="263.41854"
     inkscape:window-x="0"
     inkscape:window-y="27"
     inkscape:window-maximized="1"
     inkscape:current-layer="svg1155" />
  <!-- Generator: Sketch 42 (36781) - http://www.bohemiancoding.com/sketch -->
  <title
     id="title1146">nimiq</title>
  <desc
     id="desc1148">Created with Sketch.</desc>
  <rect
     style="opacity:1;fill:url(#linearGradient1712);fill-opacity:1;stroke:none;stroke-width:1.70666659;stroke-linecap:round;stroke-linejoin:round;stroke-miterlimit:4;stroke-dasharray:none;stroke-opacity:1"
     id="rect1704"
     width="512"
     height="512"
     x="2.9292487e-15"
     y="-512"
     ry="89.824997"
     transform="rotate(90)" />
  <defs
     id="defs1150">
    <linearGradient
       inkscape:collect="always"
       id="linearGradient1710">
      <stop
         style="stop-color:#536dfe;stop-opacity:1"
         offset="0"
         id="stop1706" />
      <stop
         style="stop-color:#a553fe;stop-opacity:1"
         offset="1"
         id="stop1708" />
    </linearGradient>
    <linearGradient
       inkscape:collect="always"
       xlink:href="#linearGradient1710"
       id="linearGradient1712"
       x1="0"
       y1="300"
       x2="600"
       y2="300"
       gradientUnits="userSpaceOnUse"
       gradientTransform="matrix(0.85333333,0,0,0.85333333,0,-512)" />
  </defs>
  <g
     id="Page-1"
     style="fill:#ffffff;fill-opacity:1;fill-rule:evenodd;stroke:none;stroke-width:1"
     transform="matrix(0.85333333,0,0,0.85333333,50.910735,74.48588)">
    <g
       id="nimiq"
       style="fill:#ffffff;fill-opacity:1">
      <path
         d="M 389.32515,20.734326 C 382.65071,9.2830741 366.48486,0 353.24245,0 H 145.23754 c -13.25347,0 -29.4056,9.2785391 -36.08269,20.734326 L 5.3251501,198.87352 c -6.6744441,11.45125 -6.6770873,30.01286 0,41.46865 L 109.15485,418.48136 c 6.67444,11.45125 22.84029,20.73433 36.08269,20.73433 h 208.00491 c 13.25348,0 29.40561,-9.27854 36.0827,-20.73433 l 103.8297,-178.13919 c 6.67444,-11.45125 6.67709,-30.01287 0,-41.46865 z M 272.61255,347.45098 v 41.09804 h -38.7451 V 349.01961 C 210.33804,346.19608 182.41647,336 163.59294,318.90196 l 25.56863,-39.05882 c 20.39215,15.05882 37.96078,22.90196 57.09804,22.90196 22.43137,0 32.31372,-9.09804 32.31372,-27.29412 0,-40.62745 -105.41176,-39.84314 -105.41176,-111.05882 0,-38.7451 23.21568,-65.568631 60.70588,-73.098042 V 50.509804 h 38.7451 v 40 c 25.56863,3.607843 43.92157,16.156866 59.45098,32.470586 l -29.4902,33.2549 c -14.43137,-13.0196 -26.66666,-19.7647 -43.45098,-19.7647 -19.13725,0 -29.49019,7.52941 -29.49019,25.2549 0,37.4902 105.41176,34.35294 105.41176,109.96079 -0.15686,37.80392 -21.33333,67.13725 -62.43137,75.7647 z"
         id="XMLID_7_"
         inkscape:connector-curvature="0"
         style="fill:#ffffff;fill-opacity:1" />
    </g>
  </g>
</svg>
