<svg fill="#1d2029" height="24" viewBox="0 0 6.3500002 6.3500002" width="24" xmlns="http://www.w3.org/2000/svg">
    <path d="M2.550738 4.79653v-.49514h.990264v.99028h-.990264zm-1.20764.42078c-.145904-.066-.259599-.17807-.328784-.32417-.0479-.10116-.05724-.15898-.05743-.35626l-.000237-.23549H1.922758v.96612l-.23549-.00055c-.184291-.00045-.25912-.0112-.344177-.0497zm2.825877-.43286v-.48306h.996723l-.01186.23549c-.01369.27202-.05417.38752-.182968.52218-.149108.1559-.290691.20795-.56641.20821l-.235491.00028zM.956653 3.17827v-.49515h.990265v.99029H.956653zm1.594085-.81033V1.06246l1.044608.007c1.005765.007 1.048731.009 1.155455.0585.141145.0653.240077.15912.312935.26464.07287.10552.08343.19131.08343.19131l.0072 1.04464.0072 1.04462H2.550675zM.937504 1.81709c.0131-.27199.06554-.4113.206264-.54797.142698-.13858.272292-.18633.540956-.19927l.23804-.0115v.99675H.926042z"/>
</svg>
