<svg xmlns="http://www.w3.org/2000/svg" viewBox="0 0 1000 1000"><path fill="white" d="M321.8 455.5h356.4V321.8c0-49.2-17.4-91.2-52.2-126-34.8-34.8-76.8-52.2-126-52.2s-91.2 17.4-126 52.2c-34.8 34.8-52.2 76.8-52.2 126v133.7zm579.1 66.8v400.9c0 18.6-6.5 34.3-19.5 47.3S852.6 990 834.1 990H165.9c-18.6 0-34.3-6.5-47.3-19.5s-19.5-28.8-19.5-47.3V522.3c0-18.6 6.5-34.3 19.5-47.3s28.8-19.5 47.3-19.5h22.3V321.8c0-85.4 30.6-158.7 91.9-219.9C341.3 40.7 414.7 10 500 10c85.3 0 158.7 30.6 219.9 91.9 61.3 61.3 91.9 134.6 91.9 219.9v133.6h22.3c18.6 0 34.3 6.5 47.3 19.5 13 13.1 19.5 28.8 19.5 47.4z"/></svg>
