<svg xmlns="http://www.w3.org/2000/svg" width="128.82292mm" height="208.19792mm" viewBox="0 0 128.82292 208.19792"><rect width="128.32292" height="207.69792" x=".25000027" y=".24999969" ry="3.609446" fill="none" stroke="#fff" stroke-width=".5"/><rect width="49.290455" height="49.314075" x="39.795765" y="143.73923" ry="3.6094458" fill="none" stroke="#fff" stroke-width=".5"/><rect width="97.990326" height="4.9136853" x="15.369049" y="124.60416" ry=".68307447" fill="none" stroke="#fff" stroke-width=".5"/><path d="M87.18345 44.245896l15.71464 27.218563c1.42004 2.459608 1.42004 5.489928 0 7.949518L87.18345 106.63255c-1.42004 2.45959-4.04438 3.97476-6.88448 3.97476H48.869711c-2.840084 0-5.46443-1.51517-6.884474-3.97476L26.270593 79.413977c-1.420042-2.45959-1.420042-5.48991 0-7.949518l15.714644-27.218563c1.420044-2.459585 4.04439-3.974752 6.884474-3.974752H80.29897c2.8401 0 5.46444 1.515167 6.88448 3.974752z" fill="none" stroke="#fff" stroke-width=".5"/><rect width="6.9950452" height="6.9017372" x="43.30051" y="147.16241" ry="1.0538023" fill="none" stroke="#fff" stroke-width=".5"/><rect width="6.9950452" height="6.9017372" x="78.662773" y="147.22495" ry="1.0538023" fill="none" stroke="#fff" stroke-width=".5"/><rect width="6.9950452" height="6.9017372" x="43.186443" y="182.59865" ry="1.0538023" fill="none" stroke="#fff" stroke-width=".5"/><g style="line-height:1.25;-inkscape-font-specification:Cantarell" aria-label="ACCOUNT BACKUP" font-weight="400" font-size="5.29166651" font-family="Cantarell" letter-spacing="0" word-spacing="0" fill="#fff" stroke-width=".26458335"><path style="-inkscape-font-specification:Cantarell" d="M44.944036 12.914901l-1.248833-3.6618334h-.550333l-1.243542 3.6618334h.455084l.354541-1.074209h1.386417l.354541 1.074209zm-1.539874-3.2067501l.571499 1.7462501h-1.142999zM48.112174 12.708526l-.169334-.365125c-.22225.142875-.53975.238125-.873125.238125-.846666 0-1.338791-.645584-1.338791-1.497542 0-.851958.492125-1.5187081 1.338791-1.5187081.333375 0 .677334.1058333.873125.238125l.169334-.365125c-.232834-.142875-.608542-.2592917-1.042459-.2592917-1.058333 0-1.778.8466668-1.778 1.9049998 0 1.058333.719667 1.883833 1.778 1.883833.354542 0 .735542-.08467 1.042459-.259291zM51.450471 12.708526l-.169333-.365125c-.22225.142875-.53975.238125-.873125.238125-.846667 0-1.338792-.645584-1.338792-1.497542 0-.851958.492125-1.5187081 1.338792-1.5187081.333375 0 .677333.1058333.873125.238125l.169333-.365125c-.232833-.142875-.608542-.2592917-1.042458-.2592917-1.058334 0-1.778.8466668-1.778 1.9049998 0 1.058333.719666 1.883833 1.778 1.883833.354541 0 .735541-.08467 1.042458-.259291zM53.693394 9.1789842c-1.058333 0-1.725083.8466668-1.725083 1.9049998 0 1.058333.66675 1.883833 1.725083 1.883833s1.725083-.8255 1.725083-1.883833c0-1.058333-.66675-1.9049998-1.725083-1.9049998zm0 3.4025418c-.846667 0-1.285875-.645584-1.285875-1.497542 0-.851958.439208-1.5187081 1.285875-1.5187081.846667 0 1.285875.6667501 1.285875 1.5187081s-.439208 1.497542-1.285875 1.497542zM57.507197 12.967817c1.042459 0 1.407584-.661458 1.407584-1.524V9.2530676h-.439209v2.3018744c0 .497417-.264583 1.026584-.968375 1.026584-.703791 0-.968375-.518584-.968375-1.026584V9.2530676h-.433916v2.1907494c0 .862542.359833 1.524 1.402291 1.524zM59.764836 9.2530676v3.6618334h.439208V9.8086925l1.947334 3.1062085h.608541V9.2530676h-.439208v3.1062084l-1.952625-3.1062084zM63.264365 9.2530676v.3862916h1.222375v3.2755418h.439209V9.6393592h1.227666v-.3862916zM69.983954 10.189693c0 .418041-.343958.582083-.740833.582083h-.6985V9.6393592h.751416c.460375 0 .687917.174625.687917.5503338zm.291041 1.650999c0 .518584-.407458.687917-.978958.687917h-.751416v-1.370542h.751416c.529167 0 .978958.148167.978958.682625zm-.328083-.941916c.296333-.142875.460375-.381.460375-.767292 0-.5873748-.455083-.8784164-.957791-.8784164h-1.344084v3.6618334h1.397c.682625 0 1.2065-.296334 1.2065-1.000125 0-.777875-.486833-.963083-.762-1.016zM74.027531 12.914901l-1.248834-3.6618334h-.550333l-1.243542 3.6618334h.455084l.354541-1.074209h1.386417l.354542 1.074209zm-1.539875-3.2067501l.5715 1.7462501h-1.143zM77.195667 12.708526l-.169333-.365125c-.22225.142875-.53975.238125-.873125.238125-.846667 0-1.338792-.645584-1.338792-1.497542 0-.851958.492125-1.5187081 1.338792-1.5187081.333375 0 .677333.1058333.873125.238125l.169333-.365125c-.232833-.142875-.608541-.2592917-1.042458-.2592917-1.058333 0-1.778.8466668-1.778 1.9049998 0 1.058333.719667 1.883833 1.778 1.883833.354542 0 .735542-.08467 1.042458-.259291zM77.872258 9.2530676v3.6618334h.439208v-1.211792l.592667-.693208 1.17475 1.905h.497417l-1.375834-2.243667 1.23825-1.4181664h-.523875l-1.603375 1.8256254V9.2530676zM82.42557 12.967817c1.042459 0 1.407584-.661458 1.407584-1.524V9.2530676h-.439209v2.3018744c0 .497417-.264583 1.026584-.968375 1.026584-.703791 0-.968375-.518584-.968375-1.026584V9.2530676h-.433916v2.1907494c0 .862542.359833 1.524 1.402291 1.524zM86.921588 10.348443c0-.7831671-.423333-1.0953754-1.121833-1.0953754h-1.338792v3.6618334h.439208v-1.508125h.899584c.645583 0 1.121833-.211667 1.121833-1.058333zm-1.27.672041h-.751417V9.6393592h.751417c.481542 0 .8255.084667.8255.6826248 0 .624417-.34925.6985-.8255.6985z"/></g></svg>